PathFileType	4	(X/Y/Z)	C:\Users\WrightLab\Desktop\Jo\P2_Trial10.trc
DataRate	CameraRate	NumFrames	NumMarkers	Units	OrigDataRate	OrigDataStartFrame	OrigNumFrames
100.00	100.00	       23	19	mm	100.00	733	       837
Frame#	Time	Headset_Front			Headset_Back			Headset_Left			Headset_Right			Left_Shoulder			Right_Shoulder			Sternum			C7			Left Elbow			Right Elbow			Left Wrist			Right Wrist			Left ASIS			Right ASIS			S2			Left Knee			Right Knee			Left Ankle			Right Ankle			
		X1	Y1	Z1	X2	Y2	Z2	X3	Y3	Z3	X4	Y4	Z4	X5	Y5	Z5	X6	Y6	Z6	X7	Y7	Z7	X8	Y8	Z8	X9	Y9	Z9	X10	Y10	Z10	X11	Y11	Z11	X12	Y12	Z12	X13	Y13	Z13	X14	Y14	Z14	X15	Y15	Z15	X16	Y16	Z16	X17	Y17	Z17	X18	Y18	Z18	X19	Y19	Z19	

733	7.320	-137.65799	1406.23242	2227.96045	-13.73208	1671.90527	2131.74365	15.10223	1549.48035	2249.25610				168.73317	1457.28101	2148.25317	-55.00155	1027.41138	2114.34668	2.66223	1322.87952	2113.84985				255.34654	1129.58118	2275.61914	-117.66862	1124.52600	1827.21387	255.04977	903.27551	2354.67480	-138.17709	873.03839	1795.64368	61.96300	1051.92566	2166.13721				126.53521	951.60083	1915.01697	316.53290	491.21252	1983.67749	-128.09708	595.92255	2146.14258				-265.28519	341.45258	2411.78735	
734	7.330	-144.92776	1403.62244	2237.17798	-21.05719	1669.77344	2141.43042	7.20701	1546.99512	2259.85400				162.16705	1455.25159	2157.69946	-61.20447	1025.81812	2126.70361	-4.27738	1320.01599	2125.09033				247.06322	1127.59412	2284.38184	-123.81231	1122.48779	1836.14111	249.25264	897.81305	2360.71997	-142.22044	869.22974	1805.03284	55.84856	1050.39465	2178.19531				117.79732	948.22681	1926.93530	311.45557	489.57791	1995.45435	-133.37225	589.01917	2151.60010							
735	7.340	-152.72414	1401.60852	2246.37891	-28.02065	1667.67297	2150.91821	-0.46154	1545.21680	2269.34814				155.29131	1453.03003	2167.38892	-68.17374	1024.67810	2140.20703	-11.50956	1318.42065	2136.75537				238.66974	1124.01184	2291.72192	-130.05621	1120.10095	1845.48804	242.50841	894.69543	2367.92334	-147.49008	868.05243	1814.26428	50.02041	1048.68750	2190.85962				108.72990	945.30109	1937.21021	305.92398	486.66806	2004.83350	-138.90518	583.39691	2159.48315				-257.28076	308.60428	2415.12109	
736	7.350	-160.71181	1400.11877	2255.75073	-35.18524	1665.88208	2160.48926	-8.32898	1543.81189	2278.89893				147.59740	1451.24243	2177.72217	-75.27249	1023.63147	2153.68140	-18.97935	1315.87659	2148.19727				231.08769	1121.14063	2300.10449	-136.84825	1117.94958	1855.27356	236.52097	890.99762	2374.26904	-152.13419	865.56036	1824.25647	43.56595	1046.37952	2202.84082				99.26722	942.62329	1949.84790	301.12079	484.72391	2015.95605	-143.58984	575.74384	2164.69116				-252.41270	289.70300	2414.42871	
737	7.360	-169.30573	1399.65906	2265.31445	-42.52502	1664.60278	2169.67676	-16.82818	1542.74255	2289.07837				140.11740	1449.07288	2187.64478	-82.88126	1021.44373	2166.40405	-26.22906	1313.92200	2159.54541				222.93646	1117.18738	2307.58691	-143.28799	1115.71216	1865.37341	229.95271	886.95801	2380.50122	-156.86330	863.36176	1833.92859	35.68759	1043.33948	2215.47144				89.73957	940.24225	1959.36353	295.81030	481.98041	2027.95410	-148.18619	566.90240	2172.71045							
738	7.370	-178.40434	1399.66016	2275.51367	-49.41013	1662.92175	2178.39331	-25.36732	1542.02649	2299.31372				132.67337	1447.39502	2198.15649	-90.84737	1018.78009	2178.72998	-34.67764	1312.38989	2171.26978				215.60710	1113.94177	2315.47314	-149.97043	1113.14758	1875.09180	223.52919	883.12976	2386.35229	-161.56641	861.05670	1843.34436	27.59987	1040.74658	2228.09790				80.42952	937.26904	1973.20166	289.55792	479.60129	2039.20532	-153.05354	559.23224	2176.48462				-242.83733	249.33736	2412.59814	
739	7.380	-188.16527	1400.77063	2286.29028				-33.66154	1541.61438	2308.96191				124.95707	1445.81274	2208.68945	-99.07126	1015.13086	2190.21265	-42.58287	1311.02979	2182.86328				208.21526	1110.88074	2323.61743	-156.92462	1111.01392	1885.76514	216.89934	879.92645	2392.69556	-166.71123	858.47833	1853.93054	19.22864	1037.75110	2241.13623				71.72315	935.14429	1984.24023	282.74109	476.40683	2049.91333	-158.14755	551.50391	2179.75659				-239.63651	229.59529	2411.70605	
740	7.390	-198.17270	1402.31689	2296.84692	-63.97735	1661.27783	2197.19482	-42.78577	1542.64026	2319.66089				117.33528	1444.51807	2219.33862	-107.51077	1011.32770	2201.49585	-50.27480	1310.36572	2194.14795				200.57263	1107.42651	2331.09570	-164.34177	1108.53333	1895.11890	210.70084	875.88824	2397.30591	-171.57108	855.98254	1863.81946	10.72261	1034.16345	2253.86475				63.34655	933.61499	1994.12573	275.31195	473.51917	2062.40527	-163.21098	545.48499	2186.36108							
741	7.400	-208.96051	1404.11169	2308.18994	-70.99030	1660.98096	2206.07153	-52.22263	1543.15491	2330.18066				109.21645	1443.41895	2230.92358	-116.03110	1008.77393	2212.96851	-58.29359	1309.45386	2204.96875				193.85217	1104.56592	2338.41040				203.74944	872.82355	2404.20947	-176.69144	853.95544	1874.38708	2.11699	1030.54822	2265.34521				54.81849	932.82330	2002.25867	268.83710	471.01535	2075.69604	-167.28595	540.46399	2192.91455	305.99921	147.53242	1931.88184				
742	7.410	-219.98151	1407.11072	2319.29492	-77.76390	1660.72302	2215.08423	-61.56485	1544.25952	2341.02515				100.90331	1442.04871	2243.13599	-124.93498	1004.50128	2221.07446	-66.49810	1308.61609	2216.27588				186.81334	1102.37061	2346.99048	-179.76631	1104.31812	1919.63855	196.80557	869.18610	2408.49805	-182.46185	852.11700	1885.02563	-6.92937	1026.06421	2274.73901				48.53697	932.24994	2011.61694	261.16565	468.23334	2088.09790	-170.45682	540.49536	2204.82837	306.47989	147.26826	1935.75256				
743	7.420	-230.88403	1409.93713	2330.05884	-83.95798	1659.97913	2223.81128	-70.88046	1545.21265	2351.73730				93.04117	1440.95667	2255.82446	-134.42122	1000.69489	2229.32837	-74.66317	1307.02112	2227.59644				179.93861	1099.26147	2354.83423	-187.26741	1103.35217	1931.09814	190.08444	865.97290	2413.88452	-189.21242	850.77002	1896.39624	-15.72504	1022.03571	2284.46777				43.62160	933.64032	2019.41541	254.38631	465.35855	2102.56079	-174.88191	547.41614	2219.31006	307.09570	147.45529	1941.19727				
744	7.430	-242.20921	1413.74817	2340.29883	-90.28602	1660.03125	2232.78296	-80.30747	1546.53174	2361.61108				84.57127	1440.32690	2269.50024	-143.54659	999.00806	2235.12793	-83.00742	1305.92114	2238.96973				173.11188	1096.61133	2362.52075	-195.11673	1102.81311	1943.84741	182.75932	862.57526	2418.64526	-195.40591	849.89679	1907.09900	-25.78236	1018.75421	2292.91162				39.89525	933.70313	2029.56250	246.75966	463.65060	2117.46558				307.63815	148.12581	1946.81531				
745	7.440	-253.93942	1417.92847	2350.15967	-96.09705	1660.02515	2241.84155	-89.91627	1547.63562	2372.55078				75.89587	1439.42688	2283.80664	-151.96176	997.08636	2238.65430	-91.15139	1306.00708	2250.25342				166.14624	1094.18848	2370.83838	-202.06209	1102.11499	1955.76953	175.04019	859.13965	2423.29028	-202.50558	849.97357	1918.89282	-35.28885	1016.07776	2299.09253				37.00819	935.65582	2038.90759	238.49483	461.91315	2132.33813				307.68738	151.56171	1955.85706				
746	7.450	-266.05673	1422.23376	2359.88013	-101.44443	1660.04150	2250.60352	-99.43472	1549.28735	2382.07642				66.78482	1438.15503	2298.24780	-161.42908	998.88318	2243.68164	-99.74879	1305.72864	2260.67383				159.22906	1091.66003	2379.96289	-202.10919	582.94922	2254.70020	167.76257	856.49536	2428.07715	-210.42917	850.64178	1932.11731	-45.39373	1013.41443	2304.88892				34.87474	937.63751	2045.55249	229.52521	460.02969	2147.94360				306.84555	155.31126	1967.64233				
747	7.460				-106.49746	1659.97998	2259.50879	-109.04041	1550.43030	2392.96143				57.51386	1437.22388	2312.70044	-169.71461	999.82532	2245.82715	-108.27605	1305.18042	2270.38452				151.86667	1089.81506	2388.96826	-214.19644	588.52661	2262.66064	159.48596	854.58203	2434.15674	-219.51303	851.72052	1946.58032	-56.13804	1012.09515	2308.41846				32.79112	938.40875	2055.03784	223.16042	458.48499	2166.09888				304.09753	160.15211	1980.21008				
748	7.470				-110.68964	1659.46289	2268.48291	-118.65250	1552.00134	2402.42163				48.48407	1435.76111	2326.39502	-209.50142	1038.00793	2298.66919	-116.04380	1304.10974	2279.84058				143.94354	1087.80994	2398.66626				151.89279	851.94897	2437.66357	-228.83040	853.27631	1961.49927	-66.17368	1012.56006	2312.66357				30.81507	940.08398	2061.33179	213.71054	456.02701	2182.73755				299.31335	165.12447	1994.19922				
749	7.480							-127.88544	1553.37939	2412.76807				39.87500	1434.21643	2339.95654				-124.50931	1303.67786	2288.79932				135.92935	1086.03918	2408.48462				143.26250	849.12384	2442.96118	-238.39534	855.87964	1976.13477	-76.57600	1013.41516	2317.31226				28.77048	939.81104	2070.53369	202.26822	455.69272	2203.84814				293.07391	170.97160	2010.04541				
750	7.490							-137.18744	1554.49048	2421.96875				31.46458	1433.23120	2352.62573				-132.80125	1303.89917	2298.13354				127.59420	1084.12598	2418.71069				135.32599	847.01880	2448.59399	-247.89745	858.82141	1990.73682	-86.11662	1015.01025	2320.34766							193.43918	454.31693	2225.43726				286.12360	174.89357	2025.54736				
751	7.500							-146.17570	1556.43372	2432.13403				23.83252	1432.34851	2364.70483				-140.34225	1304.55554	2306.44312				118.57362	1082.59119	2429.15845				126.49580	845.14557	2455.56201	-256.52460	862.69342	2006.03406	-94.41499	1017.01459	2323.93018							182.40932	455.23648	2247.29004										
752	7.510							-155.12233	1558.22437	2440.70776				16.87311	1431.99390	2375.52026				-147.55812	1306.13782	2314.23853				109.32759	1081.82532	2439.49658				117.50724	842.72986	2461.92993	-265.14792	866.07050	2019.87097	-102.10124	1019.76929	2330.37524							173.91000	456.77597	2271.54419										
753	7.520							-163.43246	1560.50146	2449.65747				10.69993	1432.34766	2385.32471				-154.08742	1307.79089	2322.14600				99.63118	1080.76208	2450.13550				108.21109	841.03436	2468.19165	-271.41321	870.16278	2030.47729	-107.98943	1021.58063	2333.93750							166.38293	458.00391	2297.45728										
754	7.530							-171.32695	1563.13733	2456.35107				5.03603	1432.53418	2394.34229				-160.49762	1310.03931	2330.30493				90.41186	1080.52454	2459.51172				98.88615	840.32684	2475.80103	-278.41449	873.72864	2040.49658	-112.64075	1024.22571	2339.26001							155.29147	457.82077	2320.82324										
755	7.540							-178.80879	1566.09070	2464.45654				-0.64882	1433.74719	2403.08716				-166.20042	1312.40112	2337.70947				80.52912	1080.98779	2469.40820				88.57721	840.18494	2484.15625	-285.36591	878.13239	2047.21997	-117.19035	1026.72461	2345.18091							145.07732	457.66690	2344.79126										
